<svg width="50" height="50" viewBox="0 0 50 50" fill="none" xmlns="http://www.w3.org/2000/svg">
<path fill-rule="evenodd" clip-rule="evenodd" d="M28.1708 3.46211C26.775 0.999609 23.2271 0.999609 21.8292 3.46211L3.53125 35.6996C2.15208 38.1309 3.90833 41.1454 6.70208 41.1454H8.10208L6.35625 43.9809L10.0104 47.6371L25 42.2829L39.9896 47.6371L43.6437 43.9809L41.8979 41.1454H43.2979C43.9355 41.1451 44.5619 40.9776 45.1145 40.6596C45.6671 40.3416 46.1267 39.8843 46.4474 39.3332C46.768 38.7821 46.9386 38.1566 46.9419 37.519C46.9453 36.8814 46.7815 36.2541 46.4667 35.6996L28.1708 3.46211ZM11.7708 41.1454L15.75 34.6809L25 19.6454L34.2667 34.7038L38.2292 41.1434L39.6875 43.5142L39.1771 44.0267L25 38.9663L10.8229 44.0288L10.3104 43.5163L11.7708 41.1454Z" fill="white"/>
</svg>
