<svg width="58" height="50" viewBox="0 0 58 50" fill="none" xmlns="http://www.w3.org/2000/svg">
<path d="M24.5 13L16.5 25H26.5L18.5 37" stroke="white" stroke-width="4" stroke-linecap="round" stroke-linejoin="round"/>
<path d="M31.5 12.5H39.6667C40.7717 12.5 41.8315 12.939 42.6129 13.7204C43.3943 14.5018 43.8333 15.5616 43.8333 16.6667V33.3333C43.8333 34.4384 43.3943 35.4982 42.6129 36.2796C41.8315 37.061 40.7717 37.5 39.6667 37.5H30.5M44.8334 29.1667V20.8333M11.0417 37.5H8.33335C7.22829 37.5 6.16848 37.061 5.38708 36.2796C4.60567 35.4982 4.16669 34.4384 4.16669 33.3333V16.6667C4.16669 15.5616 4.60567 14.5018 5.38708 13.7204C6.16848 12.939 7.22829 12.5 8.33335 12.5H14.5" stroke="white" stroke-width="4" stroke-linecap="round" stroke-linejoin="round"/>
</svg>
