<svg width="50" height="50" viewBox="0 0 50 50" fill="none" xmlns="http://www.w3.org/2000/svg">
<path d="M16.1458 5.20801C16.1458 4.79361 15.9812 4.39618 15.6882 4.10315C15.3951 3.81013 14.9977 3.64551 14.5833 3.64551C14.1689 3.64551 13.7715 3.81013 13.4785 4.10315C13.1854 4.39618 13.0208 4.79361 13.0208 5.20801V8.49967C10.0208 8.73926 8.05415 9.32676 6.60832 10.7747C5.1604 12.2205 4.5729 14.1893 4.33124 17.1872H45.6687C45.4271 14.1872 44.8396 12.2205 43.3917 10.7747C41.9458 9.32676 39.9771 8.73926 36.9792 8.49759V5.20801C36.9792 4.79361 36.8145 4.39618 36.5215 4.10315C36.2285 3.81013 35.8311 3.64551 35.4167 3.64551C35.0023 3.64551 34.6048 3.81013 34.3118 4.10315C34.0188 4.39618 33.8542 4.79361 33.8542 5.20801V8.36009C32.4687 8.33301 30.9146 8.33301 29.1667 8.33301H20.8333C19.0854 8.33301 17.5312 8.33301 16.1458 8.36009V5.20801Z" fill="white"/>
<path fill-rule="evenodd" clip-rule="evenodd" d="M4.16669 25C4.16669 23.2521 4.16669 21.6979 4.19377 20.3125H45.8063C45.8334 21.6979 45.8334 23.2521 45.8334 25V29.1667C45.8334 37.0229 45.8334 40.9521 43.3917 43.3917C40.95 45.8313 37.0229 45.8333 29.1667 45.8333H20.8334C12.9771 45.8333 9.04794 45.8333 6.60835 43.3917C4.16877 40.95 4.16669 37.0229 4.16669 29.1667V25ZM35.4167 29.1667C35.9692 29.1667 36.4991 28.9472 36.8898 28.5565C37.2805 28.1658 37.5 27.6359 37.5 27.0833C37.5 26.5308 37.2805 26.0009 36.8898 25.6102C36.4991 25.2195 35.9692 25 35.4167 25C34.8642 25 34.3342 25.2195 33.9435 25.6102C33.5528 26.0009 33.3334 26.5308 33.3334 27.0833C33.3334 27.6359 33.5528 28.1658 33.9435 28.5565C34.3342 28.9472 34.8642 29.1667 35.4167 29.1667ZM35.4167 37.5C35.9692 37.5 36.4991 37.2805 36.8898 36.8898C37.2805 36.4991 37.5 35.9692 37.5 35.4167C37.5 34.8641 37.2805 34.3342 36.8898 33.9435C36.4991 33.5528 35.9692 33.3333 35.4167 33.3333C34.8642 33.3333 34.3342 33.5528 33.9435 33.9435C33.5528 34.3342 33.3334 34.8641 33.3334 35.4167C33.3334 35.9692 33.5528 36.4991 33.9435 36.8898C34.3342 37.2805 34.8642 37.5 35.4167 37.5ZM27.0834 27.0833C27.0834 27.6359 26.8639 28.1658 26.4732 28.5565C26.0825 28.9472 25.5526 29.1667 25 29.1667C24.4475 29.1667 23.9176 28.9472 23.5269 28.5565C23.1362 28.1658 22.9167 27.6359 22.9167 27.0833C22.9167 26.5308 23.1362 26.0009 23.5269 25.6102C23.9176 25.2195 24.4475 25 25 25C25.5526 25 26.0825 25.2195 26.4732 25.6102C26.8639 26.0009 27.0834 26.5308 27.0834 27.0833ZM27.0834 35.4167C27.0834 35.9692 26.8639 36.4991 26.4732 36.8898C26.0825 37.2805 25.5526 37.5 25 37.5C24.4475 37.5 23.9176 37.2805 23.5269 36.8898C23.1362 36.4991 22.9167 35.9692 22.9167 35.4167C22.9167 34.8641 23.1362 34.3342 23.5269 33.9435C23.9176 33.5528 24.4475 33.3333 25 33.3333C25.5526 33.3333 26.0825 33.5528 26.4732 33.9435C26.8639 34.3342 27.0834 34.8641 27.0834 35.4167ZM14.5834 29.1667C15.1359 29.1667 15.6658 28.9472 16.0565 28.5565C16.4472 28.1658 16.6667 27.6359 16.6667 27.0833C16.6667 26.5308 16.4472 26.0009 16.0565 25.6102C15.6658 25.2195 15.1359 25 14.5834 25C14.0308 25 13.5009 25.2195 13.1102 25.6102C12.7195 26.0009 12.5 26.5308 12.5 27.0833C12.5 27.6359 12.7195 28.1658 13.1102 28.5565C13.5009 28.9472 14.0308 29.1667 14.5834 29.1667ZM14.5834 37.5C15.1359 37.5 15.6658 37.2805 16.0565 36.8898C16.4472 36.4991 16.6667 35.9692 16.6667 35.4167C16.6667 34.8641 16.4472 34.3342 16.0565 33.9435C15.6658 33.5528 15.1359 33.3333 14.5834 33.3333C14.0308 33.3333 13.5009 33.5528 13.1102 33.9435C12.7195 34.3342 12.5 34.8641 12.5 35.4167C12.5 35.9692 12.7195 36.4991 13.1102 36.8898C13.5009 37.2805 14.0308 37.5 14.5834 37.5Z" fill="white"/>
</svg>
