<svg width="50" height="50" viewBox="0 0 50 50" fill="none" xmlns="http://www.w3.org/2000/svg">
<path d="M25 41.667C29.4203 41.667 33.6595 39.911 36.7851 36.7854C39.9107 33.6598 41.6667 29.4206 41.6667 25.0003C41.6667 20.5801 39.9107 16.3408 36.7851 13.2152C33.6595 10.0896 29.4203 8.33366 25 8.33366C20.5797 8.33366 16.3405 10.0896 13.2149 13.2152C10.0893 16.3408 8.33335 20.5801 8.33335 25.0003C8.33335 29.4206 10.0893 33.6598 13.2149 36.7854C16.3405 39.911 20.5797 41.667 25 41.667ZM25 4.16699C27.7359 4.16699 30.445 4.70586 32.9726 5.75284C35.5002 6.79981 37.7969 8.33438 39.7314 10.2689C41.666 12.2035 43.2005 14.5001 44.2475 17.0278C45.2945 19.5554 45.8334 22.2645 45.8334 25.0003C45.8334 30.5257 43.6384 35.8247 39.7314 39.7317C35.8244 43.6387 30.5254 45.8337 25 45.8337C13.4792 45.8337 4.16669 36.4587 4.16669 25.0003C4.16669 19.475 6.36162 14.1759 10.2686 10.2689C14.1756 6.36193 19.4747 4.16699 25 4.16699ZM26.0417 14.5837V25.5212L35.4167 31.0837L33.8542 33.6462L22.9167 27.0837V14.5837H26.0417Z" fill="white"/>
</svg>
