<svg width="50" height="50" viewBox="0 0 50 50" fill="none" xmlns="http://www.w3.org/2000/svg">
<path fill-rule="evenodd" clip-rule="evenodd" d="M4.16666 25.0003C4.16666 13.4941 13.4937 4.16699 25 4.16699C36.5062 4.16699 45.8333 13.4941 45.8333 25.0003C45.8333 36.5066 36.5062 45.8337 25 45.8337C13.4937 45.8337 4.16666 36.5066 4.16666 25.0003ZM25 16.667C25 16.1145 24.7805 15.5846 24.3898 15.1939C23.9991 14.8032 23.4692 14.5837 22.9167 14.5837C22.3641 14.5837 21.8342 14.8032 21.4435 15.1939C21.0528 15.5846 20.8333 16.1145 20.8333 16.667V27.0837C20.8333 27.6362 21.0528 28.1661 21.4435 28.5568C21.8342 28.9475 22.3641 29.167 22.9167 29.167H33.3333C33.8859 29.167 34.4158 28.9475 34.8065 28.5568C35.1972 28.1661 35.4167 27.6362 35.4167 27.0837C35.4167 26.5311 35.1972 26.0012 34.8065 25.6105C34.4158 25.2198 33.8859 25.0003 33.3333 25.0003H25V16.667Z" fill="white"/>
</svg>
