<svg width="50" height="50" viewBox="0 0 50 50" fill="none" xmlns="http://www.w3.org/2000/svg">
<path d="M27.0833 10C18.75 10 18.75 40 27.0833 40C35.4167 40 45.8333 34.375 45.8333 25C45.8333 15.625 35.4167 10 27.0833 10ZM27.2917 35.8333C26.4583 35 25 31.25 25 25C25 18.75 26.4583 15 27.2917 14.1667C33.3333 14.375 41.6667 18.125 41.6667 25C41.6667 31.875 33.3333 35.625 27.2917 35.8333ZM4.16667 10.4167H19.7917C19.375 11.25 18.75 12.0833 18.5417 13.3333C18.3333 13.75 18.3333 14.1667 18.125 14.5833H4.16667V10.4167ZM16.6667 22.9167H4.16667V18.75H17.0833C16.875 20 16.875 21.4583 16.6667 22.9167ZM18.125 35.4167C18.5417 37.0833 19.1667 38.3333 20 39.5833H4.375V35.4167H18.125ZM17.0833 31.25H4.16667V27.0833H16.6667C16.875 28.5417 16.875 30 17.0833 31.25Z" fill="white"/>
</svg>
