<svg width="50" height="50" viewBox="0 0 50 50" fill="none" xmlns="http://www.w3.org/2000/svg">
<path fill-rule="evenodd" clip-rule="evenodd" d="M25 8.33301C29.4203 8.33301 33.6595 10.089 36.7851 13.2146C39.9107 16.3402 41.6667 20.5794 41.6667 24.9997C41.6667 29.4199 39.9107 33.6592 36.7851 36.7848C33.6595 39.9104 29.4203 41.6663 25 41.6663C20.5797 41.6663 16.3405 39.9104 13.2149 36.7848C10.0893 33.6592 8.33333 29.4199 8.33333 24.9997C8.33333 20.5794 10.0893 16.3402 13.2149 13.2146C16.3405 10.089 20.5797 8.33301 25 8.33301ZM6.66667 11.2497C6.82749 11.0222 7.03229 10.8294 7.26896 10.6825C7.50562 10.5356 7.76933 10.4376 8.04451 10.3944C8.31968 10.3512 8.60073 10.3636 8.87102 10.4309C9.14132 10.4982 9.39537 10.6191 9.61816 10.7863C9.84094 10.9535 10.0279 11.1636 10.1681 11.4043C10.3082 11.6451 10.3987 11.9115 10.4341 12.1877C10.4695 12.464 10.4491 12.7446 10.3742 13.0129C10.2993 13.2812 10.1713 13.5317 9.99792 13.7497C7.55908 16.9926 6.24336 20.942 6.25 24.9997C6.25 29.2226 7.64583 33.1143 9.99792 36.2497C10.3294 36.6917 10.4718 37.2473 10.3936 37.7943C10.3155 38.3413 10.0233 38.8348 9.58125 39.1663C9.13922 39.4979 8.5836 39.6402 8.03662 39.5621C7.48964 39.4839 6.9961 39.1917 6.66458 38.7497C3.68482 34.7855 2.0767 29.9589 2.08333 24.9997C2.08333 19.8434 3.78958 15.0788 6.66667 11.2497ZM40.4167 10.833C40.8587 10.5015 41.4143 10.3591 41.9613 10.4373C42.5083 10.5154 43.0018 10.8076 43.3333 11.2497C46.3138 15.2136 47.9227 20.0402 47.9167 24.9997C47.9167 30.1559 46.2104 34.9205 43.3333 38.7497C43.1725 38.9771 42.9677 39.17 42.731 39.3169C42.4944 39.4638 42.2307 39.5617 41.9555 39.6049C41.6803 39.6481 41.3993 39.6357 41.129 39.5684C40.8587 39.5011 40.6046 39.3803 40.3818 39.2131C40.1591 39.0459 39.9721 38.8357 39.8319 38.595C39.6918 38.3543 39.6013 38.0879 39.5659 37.8116C39.5305 37.5353 39.5509 37.2547 39.6258 36.9865C39.7007 36.7182 39.8287 36.4676 40.0021 36.2497C42.4409 33.0067 43.7566 29.0574 43.75 24.9997C43.75 20.7768 42.3542 16.8851 40.0021 13.7497C39.6706 13.3076 39.5282 12.752 39.6064 12.205C39.6845 11.6581 39.9746 11.1645 40.4167 10.833ZM25 12.4997C21.6848 12.4997 18.5054 13.8166 16.1612 16.1608C13.817 18.505 12.5 21.6845 12.5 24.9997C12.5 28.3149 13.817 31.4943 16.1612 33.8385C18.5054 36.1827 21.6848 37.4997 25 37.4997C28.3152 37.4997 31.4946 36.1827 33.8388 33.8385C36.183 31.4943 37.5 28.3149 37.5 24.9997C37.5 21.6845 36.183 18.505 33.8388 16.1608C31.4946 13.8166 28.3152 12.4997 25 12.4997ZM27.0833 16.6663C27.9041 16.6663 28.7168 16.828 29.4751 17.1421C30.2334 17.4562 30.9224 17.9166 31.5027 18.4969C32.0831 19.0773 32.5435 19.7663 32.8576 20.5246C33.1717 21.2829 33.3333 22.0956 33.3333 22.9163C33.3333 23.7371 33.1717 24.5498 32.8576 25.3081C32.5435 26.0664 32.0831 26.7554 31.5027 27.3358C30.9224 27.9161 30.2334 28.3765 29.4751 28.6906C28.7168 29.0047 27.9041 29.1663 27.0833 29.1663H22.9167V31.2497C22.9167 31.8022 22.6972 32.3321 22.3065 32.7228C21.9158 33.1135 21.3859 33.333 20.8333 33.333C20.2808 33.333 19.7509 33.1135 19.3602 32.7228C18.9695 32.3321 18.75 31.8022 18.75 31.2497V19.7913C18.75 18.9625 19.0792 18.1677 19.6653 17.5816C20.2513 16.9956 21.0462 16.6663 21.875 16.6663H27.0833ZM27.0833 20.833H22.9167V24.9997H27.0833C27.6359 24.9997 28.1658 24.7802 28.5565 24.3895C28.9472 23.9988 29.1667 23.4689 29.1667 22.9163C29.1667 22.3638 28.9472 21.8339 28.5565 21.4432C28.1658 21.0525 27.6359 20.833 27.0833 20.833Z" fill="white"/>
</svg>
