<svg width="50" height="50" viewBox="0 0 50 50" fill="none" xmlns="http://www.w3.org/2000/svg">
<path d="M25 34.3747C25.7768 34.3747 26.5258 34.6641 27.1009 35.1864C27.6759 35.7087 28.0358 36.4264 28.1104 37.1997L28.125 37.4997V41.6663C28.1251 42.4691 27.8164 43.241 27.2627 43.8223C26.7091 44.4035 25.953 44.7494 25.1512 44.7882C24.3494 44.8271 23.5635 44.5559 22.9562 44.0309C22.349 43.5059 21.967 42.7674 21.8896 41.9684L21.875 41.6663V37.4997C21.875 36.6709 22.2042 35.876 22.7903 35.29C23.3763 34.7039 24.1712 34.3747 25 34.3747ZM17.425 5.30176C18.2289 5.50296 18.92 6.01522 19.3462 6.72588C19.7724 7.43655 19.8989 8.28741 19.6979 9.09134L11.3646 42.4247C11.1538 43.218 10.6392 43.8966 9.93217 44.3137C9.22512 44.7308 8.38235 44.8529 7.58599 44.6537C6.78962 44.4545 6.10364 43.9499 5.67627 43.249C5.24891 42.5481 5.1145 41.7072 5.30208 40.908L13.6354 7.57467C13.8366 6.77078 14.3489 6.07973 15.0595 5.65349C15.7702 5.22725 16.6211 5.10073 17.425 5.30176ZM36.3646 7.57467L44.6979 40.908C44.8043 41.3083 44.83 41.7258 44.7736 42.1362C44.7172 42.5465 44.5798 42.9416 44.3693 43.2983C44.1589 43.6551 43.8796 43.9665 43.5477 44.2143C43.2158 44.4622 42.838 44.6416 42.4361 44.7421C42.0343 44.8427 41.6165 44.8623 41.207 44.7999C40.7975 44.7375 40.4045 44.5943 40.0509 44.3787C39.6972 44.1631 39.3899 43.8793 39.1469 43.5438C38.904 43.2083 38.7301 42.8279 38.6354 42.4247L30.3021 9.09134C30.1145 8.29216 30.2489 7.45125 30.6763 6.75037C31.1036 6.04948 31.7896 5.54489 32.586 5.34567C33.3823 5.14644 34.2251 5.26857 34.9322 5.68566C35.6392 6.10275 36.1538 6.7813 36.3646 7.57467ZM25 19.7913C25.8288 19.7913 26.6237 20.1206 27.2097 20.7066C27.7958 21.2927 28.125 22.0875 28.125 22.9163V27.083C28.125 27.9118 27.7958 28.7067 27.2097 29.2927C26.6237 29.8788 25.8288 30.208 25 30.208C24.1712 30.208 23.3763 29.8788 22.7903 29.2927C22.2042 28.7067 21.875 27.9118 21.875 27.083V22.9163C21.875 22.0875 22.2042 21.2927 22.7903 20.7066C23.3763 20.1206 24.1712 19.7913 25 19.7913ZM25 5.20801C25.7768 5.20805 26.5258 5.49742 27.1009 6.01971C27.6759 6.542 28.0358 7.25976 28.1104 8.03301L28.125 8.33301V12.4997C28.1251 13.3024 27.8164 14.0744 27.2627 14.6556C26.7091 15.2368 25.953 15.5827 25.1512 15.6215C24.3494 15.6604 23.5635 15.3892 22.9562 14.8642C22.349 14.3392 21.967 13.6007 21.8896 12.8018L21.875 12.4997V8.33301C21.875 7.50421 22.2042 6.70935 22.7903 6.1233C23.3763 5.53725 24.1712 5.20801 25 5.20801Z" fill="white"/>
</svg>
