<svg width="50" height="50" viewBox="0 0 50 50" fill="none" xmlns="http://www.w3.org/2000/svg">
<path d="M25 4.16699C26.1051 4.16699 27.1649 4.60598 27.9463 5.38738C28.7277 6.16878 29.1667 7.22859 29.1667 8.33366C29.1667 10.6462 27.3125 12.5003 25 12.5003C23.8949 12.5003 22.8351 12.0613 22.0537 11.2799C21.2723 10.4985 20.8333 9.43873 20.8333 8.33366C20.8333 7.22859 21.2723 6.16878 22.0537 5.38738C22.8351 4.60598 23.8949 4.16699 25 4.16699ZM25.8125 30.8128C28.7719 30.8013 31.7291 30.9753 34.6667 31.3337C34.7917 25.667 34.2917 20.667 33.3333 18.7503C33.0625 18.1878 32.6875 17.7087 32.2917 17.292L15.4792 31.7087C18.3125 31.2503 21.875 30.8128 25.8125 30.8128ZM15.5417 35.417C15.8125 39.042 16.3542 42.7087 17.2292 45.8337H21.5417C20.9375 44.0003 20.5 41.8545 20.1667 39.5837C20.1667 39.5837 25 38.667 29.8333 39.5837C29.5 41.8545 29.0625 44.0003 28.4583 45.8337H32.7708C33.6875 42.6045 34.2292 38.7712 34.5 34.9795C31.6171 34.6331 28.7161 34.4591 25.8125 34.4587C21.7917 34.4587 18.2917 34.8962 15.5417 35.417ZM25 14.5837C25 14.5837 18.75 14.5837 16.6667 18.7503C15.9583 20.167 15.5 23.2295 15.3542 27.0003L29 15.292C26.9375 14.5837 25 14.5837 25 14.5837ZM38.6875 11.8128L36.3125 9.04199L29 15.3128C30.1458 15.7087 31.3542 16.3337 32.2917 17.292L38.6875 11.8128ZM43.0625 32.9795C42.875 32.917 39.875 31.9378 34.6667 31.3337C34.6458 32.5212 34.5833 33.7503 34.5 34.9795C39.1875 35.5628 41.875 36.4587 41.9167 36.4587L43.0625 32.9795ZM15.3542 27.0003L7.14584 34.042L9 37.1253C9.04167 37.1045 11.4583 36.167 15.5417 35.417C15.3125 32.4795 15.25 29.5837 15.3542 27.0003Z" fill="white"/>
</svg>
