<svg width="50" height="50" viewBox="0 0 50 50" fill="none" xmlns="http://www.w3.org/2000/svg">
<path d="M16.6667 21.3643V10.4163C16.6667 8.2062 17.5446 6.08659 19.1074 4.52378C20.6702 2.96098 22.7899 2.08301 25 2.08301C27.2101 2.08301 29.3297 2.96098 30.8925 4.52378C32.4553 6.08659 33.3333 8.2062 33.3333 10.4163V21.3643C35.8812 23.1384 37.7964 25.6793 38.8001 28.6173C39.8039 31.5553 39.8438 34.7369 38.9141 37.6992C37.9844 40.6614 36.1335 43.2496 33.631 45.0871C31.1284 46.9246 28.1047 47.9154 25 47.9154C21.8953 47.9154 18.8716 46.9246 16.369 45.0871C13.8665 43.2496 12.0156 40.6614 11.0859 37.6992C10.1562 34.7369 10.1961 31.5553 11.1998 28.6173C12.2036 25.6793 14.1188 23.1384 16.6667 21.3643ZM22.9167 25.2622C20.9573 25.7741 19.2513 26.9817 18.1171 28.6594C16.9829 30.3371 16.4981 32.3703 16.7532 34.3793C17.0084 36.3883 17.986 38.2357 19.5036 39.5767C21.0211 40.9177 22.9749 41.6604 25 41.6663C27.0297 41.6683 28.9904 40.9295 30.514 39.5885C32.0376 38.2475 33.0194 36.3965 33.2752 34.3829C33.5309 32.3694 33.0429 30.3317 31.9029 28.6524C30.7628 26.9731 29.0491 25.7676 27.0833 25.2622V10.4163H22.9167V25.2622Z" fill="white"/>
</svg>
